<svg width="13" height="13" viewBox="0 0 13 13" fill="none" xmlns="http://www.w3.org/2000/svg">
<path d="M2.73438 12.6904H0.191406V4.51465H2.73438V12.6904ZM1.47656 3.39355C1.07552 3.39355 0.729167 3.24772 0.4375 2.95605C0.145833 2.66439 0 2.31803 0 1.91699C0 1.51595 0.145833 1.1696 0.4375 0.87793C0.729167 0.586263 1.07552 0.44043 1.47656 0.44043C1.8776 0.44043 2.22396 0.586263 2.51562 0.87793C2.80729 1.1696 2.95312 1.51595 2.95312 1.91699C2.95312 2.31803 2.80729 2.66439 2.51562 2.95605C2.22396 3.24772 1.8776 3.39355 1.47656 3.39355ZM12.25 12.6904H9.70703V8.69824C9.70703 8.04199 9.65234 7.56803 9.54297 7.27637C9.34245 6.78418 8.95052 6.53809 8.36719 6.53809C7.78385 6.53809 7.3737 6.75684 7.13672 7.19434C6.95443 7.52246 6.86328 8.00553 6.86328 8.64355V12.6904H4.34766V4.51465H6.78125V5.63574H6.80859C6.99089 5.27116 7.28255 4.97038 7.68359 4.7334C8.12109 4.44173 8.63151 4.2959 9.21484 4.2959C10.3997 4.2959 11.2292 4.6696 11.7031 5.41699C12.0677 6.01855 12.25 6.94824 12.25 8.20605V12.6904Z" fill="white"/>
</svg>
