<svg width="13" height="13" viewBox="0 0 13 13" fill="none" xmlns="http://www.w3.org/2000/svg">
<path d="M6.125 3.2959C5.5599 3.2959 5.03125 3.44173 4.53906 3.7334C4.0651 4.00684 3.68229 4.38965 3.39062 4.88184C3.11719 5.35579 2.98047 5.87533 2.98047 6.44043C2.98047 7.00553 3.11719 7.53418 3.39062 8.02637C3.68229 8.50033 4.0651 8.88314 4.53906 9.1748C5.03125 9.44824 5.5599 9.58496 6.125 9.58496C6.6901 9.58496 7.20964 9.44824 7.68359 9.1748C8.17578 8.88314 8.55859 8.50033 8.83203 8.02637C9.1237 7.53418 9.26953 7.00553 9.26953 6.44043C9.26953 5.87533 9.1237 5.35579 8.83203 4.88184C8.55859 4.38965 8.17578 4.00684 7.68359 3.7334C7.20964 3.44173 6.6901 3.2959 6.125 3.2959ZM6.125 8.49121C5.5599 8.49121 5.07682 8.29069 4.67578 7.88965C4.27474 7.48861 4.07422 7.00553 4.07422 6.44043C4.07422 5.87533 4.27474 5.39225 4.67578 4.99121C5.07682 4.59017 5.5599 4.38965 6.125 4.38965C6.6901 4.38965 7.17318 4.59017 7.57422 4.99121C7.97526 5.39225 8.17578 5.87533 8.17578 6.44043C8.17578 7.00553 7.97526 7.48861 7.57422 7.88965C7.17318 8.29069 6.6901 8.49121 6.125 8.49121ZM10.1445 3.15918C10.1263 3.3597 10.0443 3.53288 9.89844 3.67871C9.77083 3.82454 9.60677 3.89746 9.40625 3.89746C9.20573 3.89746 9.03255 3.82454 8.88672 3.67871C8.74089 3.53288 8.66797 3.3597 8.66797 3.15918C8.66797 2.95866 8.74089 2.78548 8.88672 2.63965C9.03255 2.49382 9.20573 2.4209 9.40625 2.4209C9.60677 2.4209 9.77995 2.49382 9.92578 2.63965C10.0716 2.78548 10.1445 2.95866 10.1445 3.15918ZM12.2227 3.89746C12.1862 3.36882 12.1042 2.91309 11.9766 2.53027C11.8125 2.07454 11.5573 1.68262 11.2109 1.35449C10.8828 1.00814 10.4909 0.75293 10.0352 0.588867C9.65234 0.461263 9.19661 0.388346 8.66797 0.370117C8.15755 0.333659 7.3099 0.31543 6.125 0.31543C4.9401 0.31543 4.08333 0.333659 3.55469 0.370117C3.04427 0.388346 2.59766 0.461263 2.21484 0.588867C1.75911 0.75293 1.35807 1.00814 1.01172 1.35449C0.683594 1.68262 0.4375 2.07454 0.273438 2.53027C0.145833 2.91309 0.0638021 3.36882 0.0273438 3.89746C0.00911458 4.40788 0 5.25553 0 6.44043C0 7.62533 0.00911458 8.4821 0.0273438 9.01074C0.0638021 9.52116 0.145833 9.96777 0.273438 10.3506C0.4375 10.8063 0.683594 11.2074 1.01172 11.5537C1.35807 11.8818 1.75911 12.1188 2.21484 12.2646C2.59766 12.4105 3.04427 12.4925 3.55469 12.5107C4.08333 12.5472 4.9401 12.5654 6.125 12.5654C7.3099 12.5654 8.15755 12.5472 8.66797 12.5107C9.19661 12.4925 9.65234 12.4196 10.0352 12.292C10.4909 12.1279 10.8828 11.8818 11.2109 11.5537C11.5573 11.2074 11.8125 10.8063 11.9766 10.3506C12.1042 9.96777 12.1771 9.52116 12.1953 9.01074C12.2318 8.4821 12.25 7.62533 12.25 6.44043C12.25 5.25553 12.2409 4.40788 12.2227 3.89746ZM10.9102 10.0498C10.6914 10.5967 10.2995 10.9886 9.73438 11.2256C9.44271 11.335 8.95052 11.4079 8.25781 11.4443C7.875 11.4626 7.3099 11.4717 6.5625 11.4717H5.6875C4.95833 11.4717 4.39323 11.4626 3.99219 11.4443C3.31771 11.4079 2.82552 11.335 2.51562 11.2256C1.96875 11.0068 1.57682 10.6149 1.33984 10.0498C1.23047 9.73991 1.15755 9.24772 1.12109 8.57324C1.10286 8.1722 1.09375 7.6071 1.09375 6.87793V6.00293C1.09375 5.27376 1.10286 4.70866 1.12109 4.30762C1.15755 3.61491 1.23047 3.12272 1.33984 2.83105C1.55859 2.26595 1.95052 1.87402 2.51562 1.65527C2.82552 1.5459 3.31771 1.47298 3.99219 1.43652C4.39323 1.41829 4.95833 1.40918 5.6875 1.40918H6.5625C7.29167 1.40918 7.85677 1.41829 8.25781 1.43652C8.95052 1.47298 9.44271 1.5459 9.73438 1.65527C10.2995 1.87402 10.6914 2.26595 10.9102 2.83105C11.0195 3.12272 11.0924 3.61491 11.1289 4.30762C11.1471 4.69043 11.1562 5.25553 11.1562 6.00293V6.87793C11.1562 7.6071 11.1471 8.1722 11.1289 8.57324C11.0924 9.24772 11.0195 9.73991 10.9102 10.0498Z" fill="white"/>
</svg>
