<svg width="155" height="49" viewBox="0 0 155 49" fill="none" xmlns="http://www.w3.org/2000/svg">
<path d="M66.4122 14.3608H70.0743V32H66.4122V24.749H58.9537V32H55.2916V14.3608H58.9537V21.563H66.4122V14.3608ZM79.962 32.2441C78.6274 32.2441 77.4433 31.9878 76.4098 31.4751C75.3762 30.9624 74.5624 30.2096 73.9684 29.2168C73.3824 28.224 73.0894 27.0562 73.0894 25.7134C73.0894 23.7033 73.7242 22.1164 74.9937 20.9526C76.2633 19.7889 77.9194 19.207 79.962 19.207C82.0128 19.207 83.6729 19.7889 84.9425 20.9526C86.212 22.1164 86.8468 23.7033 86.8468 25.7134C86.8468 27.7316 86.212 29.3267 84.9425 30.4985C83.6729 31.6623 82.0128 32.2441 79.962 32.2441ZM79.9254 29.4487C80.9508 29.4487 81.7768 29.1069 82.4034 28.4233C83.0382 27.7397 83.3556 26.8364 83.3556 25.7134C83.3556 24.5903 83.0382 23.687 82.4034 23.0034C81.7768 22.3198 80.9508 21.978 79.9254 21.978C78.9407 21.978 78.135 22.3239 77.5084 23.0156C76.8899 23.6992 76.5807 24.5985 76.5807 25.7134C76.5807 26.8283 76.8899 27.7316 77.5084 28.4233C78.135 29.1069 78.9407 29.4487 79.9254 29.4487ZM97.7843 19.4512H101.3V32H97.9674L97.8819 30.4863C96.9542 31.6582 95.6236 32.2441 93.8902 32.2441C92.3847 32.2441 91.2291 31.8698 90.4234 31.1211C89.6178 30.3643 89.2149 29.29 89.2149 27.8984V19.4512H92.7428V27.1416C92.7428 27.9229 92.9503 28.4966 93.3653 28.8628C93.7885 29.229 94.3338 29.4121 95.0011 29.4121C95.8149 29.4121 96.4781 29.1761 96.9908 28.7041C97.5116 28.224 97.7761 27.4468 97.7843 26.3726V19.4512ZM114.105 19.4512L108.587 29.29H113.934V32H103.595L109.088 22.1611H104.022V19.4512H114.105ZM118.316 17.5713C117.755 17.5713 117.275 17.376 116.876 16.9854C116.477 16.5866 116.278 16.1064 116.278 15.5449C116.278 14.9915 116.477 14.5195 116.876 14.1289C117.283 13.7301 117.763 13.5308 118.316 13.5308C118.862 13.5308 119.334 13.7301 119.733 14.1289C120.131 14.5195 120.331 14.9915 120.331 15.5449C120.331 16.1064 120.131 16.5866 119.733 16.9854C119.334 17.376 118.862 17.5713 118.316 17.5713ZM116.522 32V19.4512H120.062V32H116.522ZM131.109 19.207C132.615 19.207 133.771 19.5854 134.576 20.3423C135.382 21.091 135.785 22.1611 135.785 23.5527V32H132.257V24.3096C132.257 23.5202 132.045 22.9424 131.622 22.5762C131.207 22.21 130.67 22.0269 130.011 22.0269C129.628 22.0269 129.278 22.0798 128.961 22.1855C128.644 22.2913 128.351 22.4582 128.082 22.686C127.814 22.9058 127.602 23.2191 127.447 23.626C127.301 24.0329 127.224 24.5171 127.215 25.0786V32H123.7V19.4512H127.215V20.8428C128.143 19.7523 129.441 19.207 131.109 19.207ZM147.845 19.4512H151.19V31.0601C151.19 32.2563 151.031 33.298 150.714 34.1851C150.405 35.0721 149.953 35.7842 149.359 36.3213C148.765 36.8665 148.069 37.2694 147.272 37.5298C146.474 37.7902 145.563 37.9204 144.537 37.9204C141.225 37.9204 139.068 36.6224 138.067 34.0264L140.985 32.7812C141.343 33.6032 141.795 34.2095 142.34 34.6001C142.885 34.9907 143.573 35.186 144.403 35.186C146.576 35.186 147.662 33.8962 147.662 31.3164V29.8516C147.288 30.3643 146.759 30.7793 146.075 31.0967C145.4 31.4059 144.659 31.5605 143.854 31.5605C143.08 31.5605 142.344 31.4141 141.644 31.1211C140.952 30.82 140.346 30.4049 139.825 29.876C139.304 29.3389 138.889 28.6797 138.58 27.8984C138.279 27.1172 138.129 26.2708 138.129 25.3594C138.129 24.4398 138.279 23.5934 138.58 22.8203C138.889 22.0391 139.304 21.388 139.825 20.8672C140.354 20.3464 140.965 19.9395 141.656 19.6465C142.356 19.3535 143.097 19.207 143.878 19.207C144.741 19.207 145.514 19.382 146.197 19.7319C146.889 20.0737 147.41 20.5335 147.76 21.1113L147.845 19.4512ZM142.45 27.752C143.076 28.3949 143.845 28.7163 144.757 28.7163C145.668 28.7163 146.437 28.3908 147.064 27.7397C147.691 27.0887 148.004 26.2952 148.004 25.3594C148.004 24.4154 147.691 23.6178 147.064 22.9668C146.446 22.3158 145.677 21.9902 144.757 21.9902C143.829 21.9902 143.056 22.3117 142.438 22.9546C141.827 23.5894 141.522 24.391 141.522 25.3594C141.522 26.3115 141.831 27.109 142.45 27.752Z" fill="white"/>
<path d="M9.63812 23.6474V13.9224L20.0009 7.96536C23.4589 9.95105 26.9094 11.9367 30.3637 13.9224V28.9828H11.7795H2.15075C1.79889 28.184 1.43947 27.3965 1.14815 26.5788C-0.047411 23.2216 -0.308466 19.612 0.361198 16.1417C1.08761 12.3588 2.92257 8.75286 5.85849 5.83273C9.76676 1.94424 14.8857 0 20.0009 0C25.1236 0 30.2426 1.94424 34.1433 5.83273C38.0478 9.72498 40 14.823 40 19.9172C40 25.0152 38.0478 30.1169 34.1433 34.0016L20.0009 48.0861L5.85849 34.0054C5.26072 33.4101 4.6932 32.7695 4.17488 32.1026H8.37068L20.0009 43.6889L31.9375 31.8012C35.2291 28.5231 36.8787 24.2164 36.8787 19.9172C36.8787 15.618 35.2291 11.315 31.9375 8.03319C28.6422 4.74757 24.3178 3.10853 20.0009 3.10853C15.684 3.10853 11.3634 4.75134 8.06801 8.02942C5.58609 10.5012 4.04246 13.5381 3.42954 16.7182C2.83933 19.7627 3.10417 22.9315 4.21271 25.8629H27.2386V15.7084C24.821 14.3181 22.4109 12.9315 20.0009 11.5449L12.767 15.7084V23.6549H9.63812V23.6474Z" fill="white"/>
</svg>
