<svg width="20" height="20" viewBox="0 0 20 20" fill="none" xmlns="http://www.w3.org/2000/svg">
<path d="M4.27391 3.48011H0.58823C0.263319 3.48011 0 3.21661 0 2.89188C0 2.56714 0.263319 2.30365 0.58823 2.30365H4.27391C4.59882 2.30365 4.86214 2.56714 4.86214 2.89188C4.86214 3.21661 4.59882 3.48011 4.27391 3.48011Z" fill="#696969"/>
<path d="M6.38006 5.58609C4.89433 5.58609 3.68567 4.37743 3.68567 2.89183C3.68567 1.40592 4.89433 0.197266 6.38006 0.197266C7.86579 0.197266 9.07445 1.40592 9.07445 2.89183C9.07445 4.37748 7.86579 5.58609 6.38006 5.58609ZM6.38006 1.37377C5.54305 1.37377 4.86213 2.05483 4.86213 2.89183C4.86213 3.72884 5.54305 4.40959 6.38006 4.40959C7.21706 4.40959 7.89799 3.72884 7.89799 2.89183C7.89799 2.05483 7.21706 1.37377 6.38006 1.37377Z" fill="#696969"/>
<path d="M19.4118 3.48011H10.6201C10.2952 3.48011 10.0319 3.21661 10.0319 2.89188C10.0319 2.56714 10.2952 2.30365 10.6201 2.30365H19.4117C19.7366 2.30365 20 2.56714 20 2.89188C20 3.21661 19.7367 3.48011 19.4118 3.48011Z" fill="#696969"/>
<path d="M14.278 12.6943C12.7922 12.6943 11.5836 11.4856 11.5836 10C11.5836 8.51444 12.7923 7.30579 14.278 7.30579C15.7637 7.30579 16.9724 8.51444 16.9724 10C16.9724 11.4856 15.7638 12.6943 14.278 12.6943ZM14.278 8.48229C13.441 8.48229 12.7601 9.16304 12.7601 10C12.7601 10.837 13.441 11.5178 14.278 11.5178C15.115 11.5178 15.7959 10.837 15.7959 10C15.7959 9.16304 15.115 8.48229 14.278 8.48229Z" fill="#696969"/>
<path d="M10.0382 10.5883H0.58823C0.263319 10.5883 0 10.3248 0 10C0 9.6753 0.263319 9.4118 0.58823 9.4118H10.0382C10.3631 9.4118 10.6264 9.6753 10.6264 10C10.6264 10.3248 10.3631 10.5883 10.0382 10.5883Z" fill="#696969"/>
<path d="M19.4117 10.5883H16.3841C16.0592 10.5883 15.7959 10.3248 15.7959 10C15.7959 9.6753 16.0592 9.4118 16.3841 9.4118H19.4117C19.7366 9.4118 19.9999 9.6753 19.9999 10C19.9999 10.3248 19.7366 10.5883 19.4117 10.5883Z" fill="#696969"/>
<path d="M5.72198 19.8027C4.23625 19.8027 3.02759 18.594 3.02759 17.1081C3.02759 15.6225 4.23625 14.4139 5.72198 14.4139C7.20771 14.4139 8.41637 15.6225 8.41637 17.1081C8.41637 18.594 7.20771 19.8027 5.72198 19.8027ZM5.72198 15.5904C4.88497 15.5904 4.20405 16.2711 4.20405 17.1081C4.20405 17.9451 4.88497 18.6262 5.72198 18.6262C6.55899 18.6262 7.23991 17.9451 7.23991 17.1081C7.23991 16.2711 6.55899 15.5904 5.72198 15.5904Z" fill="#696969"/>
<path d="M19.4118 17.6964H9.96189C9.63698 17.6964 9.37366 17.4329 9.37366 17.1082C9.37366 16.7835 9.63698 16.52 9.96189 16.52H19.4118C19.7367 16.52 20 16.7835 20 17.1082C20 17.4329 19.7367 17.6964 19.4118 17.6964Z" fill="#696969"/>
<path d="M3.61581 17.6964H0.58823C0.263319 17.6964 0 17.4329 0 17.1081C0 16.7834 0.263319 16.5199 0.58823 16.5199H3.61581C3.94072 16.5199 4.20404 16.7834 4.20404 17.1081C4.20404 17.4329 3.94072 17.6964 3.61581 17.6964Z" fill="#696969"/>
</svg>
