<svg width="14" height="13" viewBox="0 0 14 13" fill="none" xmlns="http://www.w3.org/2000/svg">
<path d="M12.5508 3.59668C12.569 3.6696 12.5781 3.78809 12.5781 3.95215C12.5781 5.26465 12.2591 6.53158 11.6211 7.75293C10.9648 9.0472 10.0443 10.0771 8.85938 10.8428C7.5651 11.6995 6.07943 12.1279 4.40234 12.1279C2.79818 12.1279 1.33073 11.6995 0 10.8428C0.200521 10.861 0.428385 10.8701 0.683594 10.8701C2.01432 10.8701 3.20833 10.46 4.26562 9.63965C3.6276 9.63965 3.0625 9.45736 2.57031 9.09277C2.09635 8.70996 1.76823 8.236 1.58594 7.6709C1.76823 7.68913 1.94141 7.69824 2.10547 7.69824C2.36068 7.69824 2.61589 7.6709 2.87109 7.61621C2.21484 7.47038 1.66797 7.13314 1.23047 6.60449C0.792969 6.07585 0.574219 5.47428 0.574219 4.7998V4.74512C0.97526 4.9821 1.40365 5.1097 1.85938 5.12793C1.47656 4.85449 1.16667 4.50814 0.929688 4.08887C0.692708 3.6696 0.574219 3.21387 0.574219 2.72168C0.574219 2.21126 0.710938 1.72819 0.984375 1.27246C1.69531 2.16569 2.5612 2.87663 3.58203 3.40527C4.62109 3.93392 5.72396 4.22559 6.89062 4.28027C6.85417 4.06152 6.83594 3.84277 6.83594 3.62402C6.83594 3.11361 6.96354 2.63965 7.21875 2.20215C7.47396 1.74642 7.82031 1.39095 8.25781 1.13574C8.69531 0.880534 9.16927 0.75293 9.67969 0.75293C10.099 0.75293 10.4818 0.834961 10.8281 0.999023C11.1927 1.16309 11.5117 1.38184 11.7852 1.65527C12.4414 1.52767 13.0521 1.2998 13.6172 0.97168C13.3984 1.64616 12.9792 2.1748 12.3594 2.55762C12.9062 2.4847 13.4531 2.32975 14 2.09277C13.599 2.67611 13.1159 3.17741 12.5508 3.59668Z" fill="white"/>
</svg>
